<?xml version="1.0" encoding="UTF-8" standalone="no"?>
<!DOCTYPE svg PUBLIC "-//W3C//DTD SVG 1.1//EN"
 "http://www.w3.org/Graphics/SVG/1.1/DTD/svg11.dtd">
<!-- Generated by graphviz version 2.38.0 (20140413.2041)
 -->
<!-- Title: punchcardjs Pages: 1 -->
<svg width="1683pt" height="404pt"
 viewBox="0.00 0.00 1682.54 404.00" xmlns="http://www.w3.org/2000/svg" xmlns:xlink="http://www.w3.org/1999/xlink">
<g id="graph0" class="graph" transform="scale(1 1) rotate(0) translate(4 400)">
<title>punchcardjs</title>
<polygon fill="white" stroke="none" points="-4,4 -4,-400 1678.54,-400 1678.54,4 -4,4"/>
<!-- 0 -->
<g id="node1" class="node"><title>0</title>
<ellipse fill="#fff2be" stroke="black" cx="48.0957" cy="-306" rx="48.1917" ry="18"/>
<text text-anchor="middle" x="48.0957" y="-302.3" font-family="Times,serif" font-size="14.00">prepublish</text>
</g>
<!-- 1 -->
<g id="node2" class="node"><title>1</title>
<ellipse fill="#fff2be" stroke="black" cx="106.096" cy="-378" rx="36.2938" ry="18"/>
<text text-anchor="middle" x="106.096" y="-374.3" font-family="Times,serif" font-size="14.00">publish</text>
</g>
<!-- 1&#45;&gt;0 -->
<g id="edge29" class="edge"><title>1&#45;&gt;0</title>
<path fill="none" stroke="black" d="M92.9346,-361.116C85.6234,-352.292 76.3747,-341.13 68.1787,-331.238"/>
<polygon fill="black" stroke="black" points="70.6825,-328.774 61.6072,-323.307 65.2924,-333.24 70.6825,-328.774"/>
</g>
<!-- 2 -->
<g id="node3" class="node"><title>2</title>
<ellipse fill="#fff2be" stroke="black" cx="165.096" cy="-306" rx="51.1914" ry="18"/>
<text text-anchor="middle" x="165.096" y="-302.3" font-family="Times,serif" font-size="14.00">postpublish</text>
</g>
<!-- 1&#45;&gt;2 -->
<g id="edge30" class="edge"><title>1&#45;&gt;2</title>
<path fill="none" stroke="black" d="M119.484,-361.116C126.815,-352.418 136.061,-341.448 144.309,-331.663"/>
<polygon fill="black" stroke="black" points="147.169,-333.699 150.938,-323.797 141.817,-329.188 147.169,-333.699"/>
</g>
<!-- 3 -->
<g id="node4" class="node"><title>3</title>
<ellipse fill="#fff2be" stroke="black" cx="278.096" cy="-306" rx="43.5923" ry="18"/>
<text text-anchor="middle" x="278.096" y="-302.3" font-family="Times,serif" font-size="14.00">preinstall</text>
</g>
<!-- 4 -->
<g id="node5" class="node"><title>4</title>
<ellipse fill="#fff2be" stroke="black" cx="332.096" cy="-378" rx="32.4942" ry="18"/>
<text text-anchor="middle" x="332.096" y="-374.3" font-family="Times,serif" font-size="14.00">install</text>
</g>
<!-- 4&#45;&gt;3 -->
<g id="edge31" class="edge"><title>4&#45;&gt;3</title>
<path fill="none" stroke="black" d="M319.842,-361.116C313.035,-352.292 304.424,-341.13 296.794,-331.238"/>
<polygon fill="black" stroke="black" points="299.555,-329.087 290.675,-323.307 294.012,-333.363 299.555,-329.087"/>
</g>
<!-- 5 -->
<g id="node6" class="node"><title>5</title>
<ellipse fill="#fff2be" stroke="black" cx="386.096" cy="-306" rx="46.5926" ry="18"/>
<text text-anchor="middle" x="386.096" y="-302.3" font-family="Times,serif" font-size="14.00">postinstall</text>
</g>
<!-- 4&#45;&gt;5 -->
<g id="edge32" class="edge"><title>4&#45;&gt;5</title>
<path fill="none" stroke="black" d="M344.349,-361.116C350.992,-352.505 359.352,-341.667 366.843,-331.957"/>
<polygon fill="black" stroke="black" points="369.801,-333.853 373.138,-323.797 364.258,-329.577 369.801,-333.853"/>
</g>
<!-- 6 -->
<g id="node7" class="node"><title>6</title>
<ellipse fill="#fff2be" stroke="black" cx="503.096" cy="-306" rx="51.9908" ry="18"/>
<text text-anchor="middle" x="503.096" y="-302.3" font-family="Times,serif" font-size="14.00">preuninstall</text>
</g>
<!-- 7 -->
<g id="node8" class="node"><title>7</title>
<ellipse fill="#fff2be" stroke="black" cx="566.096" cy="-378" rx="40.8928" ry="18"/>
<text text-anchor="middle" x="566.096" y="-374.3" font-family="Times,serif" font-size="14.00">uninstall</text>
</g>
<!-- 7&#45;&gt;6 -->
<g id="edge33" class="edge"><title>7&#45;&gt;6</title>
<path fill="none" stroke="black" d="M551.8,-361.116C543.779,-352.204 533.611,-340.906 524.643,-330.942"/>
<polygon fill="black" stroke="black" points="527.063,-328.399 517.772,-323.307 521.86,-333.081 527.063,-328.399"/>
</g>
<!-- 8 -->
<g id="node9" class="node"><title>8</title>
<ellipse fill="#fff2be" stroke="black" cx="629.096" cy="-306" rx="55.7903" ry="18"/>
<text text-anchor="middle" x="629.096" y="-302.3" font-family="Times,serif" font-size="14.00">postuninstall</text>
</g>
<!-- 7&#45;&gt;8 -->
<g id="edge34" class="edge"><title>7&#45;&gt;8</title>
<path fill="none" stroke="black" d="M580.391,-361.116C588.298,-352.331 598.29,-341.229 607.163,-331.37"/>
<polygon fill="black" stroke="black" points="609.89,-333.572 613.978,-323.797 604.687,-328.889 609.89,-333.572"/>
</g>
<!-- 9 -->
<g id="node10" class="node"><title>9</title>
<ellipse fill="#fff2be" stroke="black" cx="809.096" cy="-378" rx="36.2938" ry="18"/>
<text text-anchor="middle" x="809.096" y="-374.3" font-family="Times,serif" font-size="14.00">version</text>
</g>
<!-- 37 -->
<g id="node38" class="node"><title>37</title>
<g id="a_node38"><a xlink:title="git log &#45;&#45;pretty=oneline &#45;&#45;max&#45;count 10">
<ellipse fill="#fff2be" stroke="black" cx="754.096" cy="-306" rx="51.1914" ry="18"/>
<text text-anchor="middle" x="754.096" y="-302.3" font-family="Times,serif" font-size="14.00">postversion</text>
</a>
</g>
</g>
<!-- 9&#45;&gt;37 -->
<g id="edge44" class="edge"><title>9&#45;&gt;37</title>
<path fill="none" stroke="black" d="M796.339,-360.765C789.565,-352.143 781.097,-341.365 773.524,-331.727"/>
<polygon fill="black" stroke="black" points="776.095,-329.334 767.165,-323.633 770.591,-333.659 776.095,-329.334"/>
</g>
<!-- 41 -->
<g id="node42" class="node"><title>41</title>
<g id="a_node42"><a xlink:title="npm run purge &amp;&amp; npm install &amp;&amp; typings install &amp;&amp; npm run dist &amp;&amp; npm run test">
<ellipse fill="#fff2be" stroke="black" cx="871.096" cy="-306" rx="48.1917" ry="18"/>
<text text-anchor="middle" x="871.096" y="-302.3" font-family="Times,serif" font-size="14.00">preversion</text>
</a>
</g>
</g>
<!-- 9&#45;&gt;41 -->
<g id="edge48" class="edge"><title>9&#45;&gt;41</title>
<path fill="none" stroke="black" d="M823.164,-361.116C831.058,-352.204 841.064,-340.906 849.89,-330.942"/>
<polygon fill="black" stroke="black" points="852.642,-333.114 856.652,-323.307 847.402,-328.472 852.642,-333.114"/>
</g>
<!-- 10 -->
<g id="node11" class="node"><title>10</title>
<ellipse fill="#fff2be" stroke="black" cx="781.096" cy="-162" rx="34.394" ry="18"/>
<text text-anchor="middle" x="781.096" y="-158.3" font-family="Times,serif" font-size="14.00">pretest</text>
</g>
<!-- 11 -->
<g id="node12" class="node"><title>11</title>
<ellipse fill="#fff2be" stroke="black" cx="871.096" cy="-162" rx="37.8943" ry="18"/>
<text text-anchor="middle" x="871.096" y="-158.3" font-family="Times,serif" font-size="14.00">posttest</text>
</g>
<!-- 12 -->
<g id="node13" class="node"><title>12</title>
<ellipse fill="#fff2be" stroke="black" cx="1130.1" cy="-306" rx="36.2938" ry="18"/>
<text text-anchor="middle" x="1130.1" y="-302.3" font-family="Times,serif" font-size="14.00">prestop</text>
</g>
<!-- 13 -->
<g id="node14" class="node"><title>13</title>
<ellipse fill="#fff2be" stroke="black" cx="1177.1" cy="-378" rx="27" ry="18"/>
<text text-anchor="middle" x="1177.1" y="-374.3" font-family="Times,serif" font-size="14.00">stop</text>
</g>
<!-- 13&#45;&gt;12 -->
<g id="edge37" class="edge"><title>13&#45;&gt;12</title>
<path fill="none" stroke="black" d="M1166.43,-361.116C1160.62,-352.469 1153.31,-341.575 1146.77,-331.833"/>
<polygon fill="black" stroke="black" points="1149.52,-329.658 1141.04,-323.307 1143.71,-333.56 1149.52,-329.658"/>
</g>
<!-- 14 -->
<g id="node15" class="node"><title>14</title>
<ellipse fill="#fff2be" stroke="black" cx="1225.1" cy="-306" rx="40.0939" ry="18"/>
<text text-anchor="middle" x="1225.1" y="-302.3" font-family="Times,serif" font-size="14.00">poststop</text>
</g>
<!-- 13&#45;&gt;14 -->
<g id="edge38" class="edge"><title>13&#45;&gt;14</title>
<path fill="none" stroke="black" d="M1187.99,-361.116C1193.92,-352.469 1201.39,-341.575 1208.07,-331.833"/>
<polygon fill="black" stroke="black" points="1211.15,-333.534 1213.91,-323.307 1205.37,-329.575 1211.15,-333.534"/>
</g>
<!-- 15 -->
<g id="node16" class="node"><title>15</title>
<ellipse fill="#fff2be" stroke="black" cx="1320.1" cy="-306" rx="37.0935" ry="18"/>
<text text-anchor="middle" x="1320.1" y="-302.3" font-family="Times,serif" font-size="14.00">prestart</text>
</g>
<!-- 16 -->
<g id="node17" class="node"><title>16</title>
<ellipse fill="#fff2be" stroke="black" cx="1367.1" cy="-378" rx="27" ry="18"/>
<text text-anchor="middle" x="1367.1" y="-374.3" font-family="Times,serif" font-size="14.00">start</text>
</g>
<!-- 16&#45;&gt;15 -->
<g id="edge39" class="edge"><title>16&#45;&gt;15</title>
<path fill="none" stroke="black" d="M1356.43,-361.116C1350.62,-352.469 1343.31,-341.575 1336.77,-331.833"/>
<polygon fill="black" stroke="black" points="1339.52,-329.658 1331.04,-323.307 1333.71,-333.56 1339.52,-329.658"/>
</g>
<!-- 17 -->
<g id="node18" class="node"><title>17</title>
<ellipse fill="#fff2be" stroke="black" cx="1415.1" cy="-306" rx="40.0939" ry="18"/>
<text text-anchor="middle" x="1415.1" y="-302.3" font-family="Times,serif" font-size="14.00">poststart</text>
</g>
<!-- 16&#45;&gt;17 -->
<g id="edge40" class="edge"><title>16&#45;&gt;17</title>
<path fill="none" stroke="black" d="M1377.99,-361.116C1383.92,-352.469 1391.39,-341.575 1398.07,-331.833"/>
<polygon fill="black" stroke="black" points="1401.15,-333.534 1403.91,-323.307 1395.37,-329.575 1401.15,-333.534"/>
</g>
<!-- 18 -->
<g id="node19" class="node"><title>18</title>
<ellipse fill="#fff2be" stroke="black" cx="1517.1" cy="-306" rx="44.393" ry="18"/>
<text text-anchor="middle" x="1517.1" y="-302.3" font-family="Times,serif" font-size="14.00">prerestart</text>
</g>
<!-- 19 -->
<g id="node20" class="node"><title>19</title>
<ellipse fill="#fff2be" stroke="black" cx="1572.1" cy="-378" rx="32.4942" ry="18"/>
<text text-anchor="middle" x="1572.1" y="-374.3" font-family="Times,serif" font-size="14.00">restart</text>
</g>
<!-- 19&#45;&gt;18 -->
<g id="edge41" class="edge"><title>19&#45;&gt;18</title>
<path fill="none" stroke="black" d="M1559.62,-361.116C1552.68,-352.292 1543.91,-341.13 1536.14,-331.238"/>
<polygon fill="black" stroke="black" points="1538.84,-329.008 1529.91,-323.307 1533.33,-333.333 1538.84,-329.008"/>
</g>
<!-- 20 -->
<g id="node21" class="node"><title>20</title>
<ellipse fill="#fff2be" stroke="black" cx="1627.1" cy="-306" rx="47.3916" ry="18"/>
<text text-anchor="middle" x="1627.1" y="-302.3" font-family="Times,serif" font-size="14.00">postrestart</text>
</g>
<!-- 19&#45;&gt;20 -->
<g id="edge42" class="edge"><title>19&#45;&gt;20</title>
<path fill="none" stroke="black" d="M1584.58,-361.116C1591.41,-352.418 1600.03,-341.448 1607.72,-331.663"/>
<polygon fill="black" stroke="black" points="1610.47,-333.823 1613.9,-323.797 1604.97,-329.498 1610.47,-333.823"/>
</g>
<!-- 21 -->
<g id="node22" class="node"><title>21</title>
<g id="a_node22"><a xlink:title="npm run clean&#45;build &amp; npm run clean&#45;dist &amp; npm run clean&#45;sites">
<ellipse fill="none" stroke="black" cx="699.096" cy="-162" rx="29.4969" ry="18"/>
<text text-anchor="middle" x="699.096" y="-158.3" font-family="Times,serif" font-size="14.00">clean</text>
</a>
</g>
</g>
<!-- 22 -->
<g id="node23" class="node"><title>22</title>
<g id="a_node23"><a xlink:title="trash build/">
<ellipse fill="none" stroke="black" cx="705.096" cy="-90" rx="50.0912" ry="18"/>
<text text-anchor="middle" x="705.096" y="-86.3" font-family="Times,serif" font-size="14.00">clean&#45;build</text>
</a>
</g>
</g>
<!-- 21&#45;&gt;22 -->
<g id="edge1" class="edge"><title>21&#45;&gt;22</title>
<path fill="none" stroke="black" d="M700.579,-143.697C701.24,-135.983 702.035,-126.712 702.772,-118.112"/>
<polygon fill="black" stroke="black" points="706.263,-118.367 703.63,-108.104 699.288,-117.769 706.263,-118.367"/>
</g>
<!-- 24 -->
<g id="node25" class="node"><title>24</title>
<g id="a_node25"><a xlink:title="trash dist/">
<ellipse fill="none" stroke="black" cx="818.096" cy="-90" rx="44.6926" ry="18"/>
<text text-anchor="middle" x="818.096" y="-86.3" font-family="Times,serif" font-size="14.00">clean&#45;dist</text>
</a>
</g>
</g>
<!-- 21&#45;&gt;24 -->
<g id="edge2" class="edge"><title>21&#45;&gt;24</title>
<path fill="none" stroke="black" d="M719.553,-148.967C737.578,-138.363 764.162,-122.725 785.178,-110.363"/>
<polygon fill="black" stroke="black" points="786.958,-113.377 793.802,-105.29 783.408,-107.344 786.958,-113.377"/>
</g>
<!-- 26 -->
<g id="node27" class="node"><title>26</title>
<g id="a_node27"><a xlink:title="npm run clean&#45;cover &amp; npm run clean&#45;tsdoc">
<ellipse fill="none" stroke="black" cx="589.096" cy="-90" rx="48.1917" ry="18"/>
<text text-anchor="middle" x="589.096" y="-86.3" font-family="Times,serif" font-size="14.00">clean&#45;sites</text>
</a>
</g>
</g>
<!-- 21&#45;&gt;26 -->
<g id="edge3" class="edge"><title>21&#45;&gt;26</title>
<path fill="none" stroke="black" d="M679.43,-148.485C663.212,-138.165 639.886,-123.321 621,-111.303"/>
<polygon fill="black" stroke="black" points="622.723,-108.25 612.407,-105.834 618.965,-114.156 622.723,-108.25"/>
</g>
<!-- 23 -->
<g id="node24" class="node"><title>23</title>
<g id="a_node24"><a xlink:title="trash docs/sites/coverage/">
<ellipse fill="none" stroke="black" cx="589.096" cy="-18" rx="51.9908" ry="18"/>
<text text-anchor="middle" x="589.096" y="-14.3" font-family="Times,serif" font-size="14.00">clean&#45;cover</text>
</a>
</g>
</g>
<!-- 25 -->
<g id="node26" class="node"><title>25</title>
<g id="a_node26"><a xlink:title="trash typings/ node_modules/">
<ellipse fill="none" stroke="black" cx="576.096" cy="-162" rx="75.2868" ry="18"/>
<text text-anchor="middle" x="576.096" y="-158.3" font-family="Times,serif" font-size="14.00">clean&#45;downloaded</text>
</a>
</g>
</g>
<!-- 26&#45;&gt;23 -->
<g id="edge4" class="edge"><title>26&#45;&gt;23</title>
<path fill="none" stroke="black" d="M589.096,-71.6966C589.096,-63.9827 589.096,-54.7125 589.096,-46.1124"/>
<polygon fill="black" stroke="black" points="592.596,-46.1043 589.096,-36.1043 585.596,-46.1044 592.596,-46.1043"/>
</g>
<!-- 27 -->
<g id="node28" class="node"><title>27</title>
<g id="a_node28"><a xlink:title="trash docs/sites/tsdoc/">
<ellipse fill="none" stroke="black" cx="775.096" cy="-18" rx="50.8918" ry="18"/>
<text text-anchor="middle" x="775.096" y="-14.3" font-family="Times,serif" font-size="14.00">clean&#45;tsdoc</text>
</a>
</g>
</g>
<!-- 26&#45;&gt;27 -->
<g id="edge5" class="edge"><title>26&#45;&gt;27</title>
<path fill="none" stroke="black" d="M621.921,-76.6465C652.58,-65.108 698.531,-47.8148 732.105,-35.1794"/>
<polygon fill="black" stroke="black" points="733.533,-38.3818 741.659,-31.5837 731.067,-31.8304 733.533,-38.3818"/>
</g>
<!-- 28 -->
<g id="node29" class="node"><title>28</title>
<g id="a_node29"><a xlink:title="npm run test &amp;&amp; npm run remap&#45;istanbul&#45;json &amp;&amp; npm run remap&#45;istanbul&#45;html">
<ellipse fill="none" stroke="black" cx="1045.1" cy="-306" rx="30.5947" ry="18"/>
<text text-anchor="middle" x="1045.1" y="-302.3" font-family="Times,serif" font-size="14.00">cover</text>
</a>
</g>
</g>
<!-- 38 -->
<g id="node39" class="node"><title>38</title>
<g id="a_node39"><a xlink:title="trash docs/sites/coverage/ &amp;&amp; npm run jslint &amp;&amp; npm run jshint &amp;&amp; npm run dist">
<ellipse fill="none" stroke="black" cx="1045.1" cy="-234" rx="41.6928" ry="18"/>
<text text-anchor="middle" x="1045.1" y="-230.3" font-family="Times,serif" font-size="14.00">precover</text>
</a>
</g>
</g>
<!-- 28&#45;&gt;38 -->
<g id="edge45" class="edge"><title>28&#45;&gt;38</title>
<path fill="none" stroke="black" d="M1045.1,-287.697C1045.1,-279.983 1045.1,-270.712 1045.1,-262.112"/>
<polygon fill="black" stroke="black" points="1048.6,-262.104 1045.1,-252.104 1041.6,-262.104 1048.6,-262.104"/>
</g>
<!-- 43 -->
<g id="node44" class="node"><title>43</title>
<g id="a_node44"><a xlink:title="remap&#45;istanbul &#45;&#45;input docs/sites/coverage/coverage&#45;remapped.json &#45;&#45;output docs/sites/coverage/remapped &#45;&#45;type html &#45;&#45;exclude node_modules">
<ellipse fill="none" stroke="black" cx="1188.1" cy="-234" rx="83.3857" ry="18"/>
<text text-anchor="middle" x="1188.1" y="-230.3" font-family="Times,serif" font-size="14.00">remap&#45;istanbul&#45;html</text>
</a>
</g>
</g>
<!-- 28&#45;&gt;43 -->
<g id="edge8" class="edge"><title>28&#45;&gt;43</title>
<path fill="none" stroke="black" d="M1067.75,-293.908C1088.94,-283.539 1121.07,-267.808 1146.81,-255.209"/>
<polygon fill="black" stroke="black" points="1148.53,-258.265 1155.97,-250.725 1145.45,-251.978 1148.53,-258.265"/>
</g>
<!-- 44 -->
<g id="node45" class="node"><title>44</title>
<g id="a_node45"><a xlink:title="remap&#45;istanbul &#45;&#45;input docs/sites/coverage/coverage.json &#45;&#45;output docs/sites/coverage/coverage&#45;remapped.json">
<ellipse fill="none" stroke="black" cx="1370.1" cy="-234" rx="81.4863" ry="18"/>
<text text-anchor="middle" x="1370.1" y="-230.3" font-family="Times,serif" font-size="14.00">remap&#45;istanbul&#45;json</text>
</a>
</g>
</g>
<!-- 28&#45;&gt;44 -->
<g id="edge7" class="edge"><title>28&#45;&gt;44</title>
<path fill="none" stroke="black" d="M1068.47,-294.055C1073.85,-291.821 1079.6,-289.652 1085.1,-288 1169.49,-262.612 1193.46,-268.179 1280.1,-252 1286.71,-250.764 1293.6,-249.473 1300.49,-248.177"/>
<polygon fill="black" stroke="black" points="1301.38,-251.572 1310.56,-246.282 1300.08,-244.693 1301.38,-251.572"/>
</g>
<!-- 45 -->
<g id="node46" class="node"><title>45</title>
<g id="a_node46"><a xlink:title="karma start karma.conf.js">
<ellipse fill="#fff2be" stroke="black" cx="871.096" cy="-234" rx="27" ry="18"/>
<text text-anchor="middle" x="871.096" y="-230.3" font-family="Times,serif" font-size="14.00">test</text>
</a>
</g>
</g>
<!-- 28&#45;&gt;45 -->
<g id="edge6" class="edge"><title>28&#45;&gt;45</title>
<path fill="none" stroke="black" d="M1021.02,-294.653C1015.78,-292.433 1010.26,-290.119 1005.1,-288 970.464,-273.794 930.539,-258.089 903.339,-247.49"/>
<polygon fill="black" stroke="black" points="904.516,-244.192 893.927,-243.828 901.978,-250.716 904.516,-244.192"/>
</g>
<!-- 29 -->
<g id="node30" class="node"><title>29</title>
<g id="a_node30"><a xlink:title="cat src/*.css &gt; dist/punchcards.css &amp;&amp; csslint &#45;&#45;config=.csslintrc &#45;&#45;format=compact dist/punchcards.css">
<ellipse fill="none" stroke="black" cx="1394.1" cy="-18" rx="33.2948" ry="18"/>
<text text-anchor="middle" x="1394.1" y="-14.3" font-family="Times,serif" font-size="14.00">csslint</text>
</a>
</g>
</g>
<!-- 30 -->
<g id="node31" class="node"><title>30</title>
<g id="a_node31"><a xlink:title="browserify src/punchcards.ts &#45;&#45;debug &#45;&#45;standalone punchcards &#45;p [ tsify &#45;&#45;project . ] &gt; build/punchcards&#45;with&#45;source&#45;maps.js">
<ellipse fill="none" stroke="black" cx="1045.1" cy="-162" rx="27" ry="18"/>
<text text-anchor="middle" x="1045.1" y="-158.3" font-family="Times,serif" font-size="14.00">dist</text>
</a>
</g>
</g>
<!-- 36 -->
<g id="node37" class="node"><title>36</title>
<g id="a_node37"><a xlink:title="npm run exorcist &amp;&amp; npm run uglifyjs &amp;&amp; npm run uglifycss">
<ellipse fill="none" stroke="black" cx="1045.1" cy="-90" rx="38.1938" ry="18"/>
<text text-anchor="middle" x="1045.1" y="-86.3" font-family="Times,serif" font-size="14.00">postdist</text>
</a>
</g>
</g>
<!-- 30&#45;&gt;36 -->
<g id="edge43" class="edge"><title>30&#45;&gt;36</title>
<path fill="none" stroke="black" d="M1045.1,-143.697C1045.1,-135.983 1045.1,-126.712 1045.1,-118.112"/>
<polygon fill="black" stroke="black" points="1048.6,-118.104 1045.1,-108.104 1041.6,-118.104 1048.6,-118.104"/>
</g>
<!-- 39 -->
<g id="node40" class="node"><title>39</title>
<g id="a_node40"><a xlink:title="trash build/ &amp;&amp; mkdirp build &amp;&amp; trash dist/ &amp;&amp; mkdirp dist &amp;&amp; npm run tslint &amp;&amp; npm run csslint">
<ellipse fill="none" stroke="black" cx="1434.1" cy="-90" rx="34.394" ry="18"/>
<text text-anchor="middle" x="1434.1" y="-86.3" font-family="Times,serif" font-size="14.00">predist</text>
</a>
</g>
</g>
<!-- 30&#45;&gt;39 -->
<g id="edge46" class="edge"><title>30&#45;&gt;39</title>
<path fill="none" stroke="black" d="M1069.42,-154.179C1081.83,-150.841 1097.2,-146.923 1111.1,-144 1210.45,-123.097 1328.45,-105.556 1390.68,-96.8652"/>
<polygon fill="black" stroke="black" points="1391.48,-100.288 1400.9,-95.4469 1390.51,-93.3541 1391.48,-100.288"/>
</g>
<!-- 31 -->
<g id="node32" class="node"><title>31</title>
<g id="a_node32"><a xlink:title="npm run tsdoc &amp;&amp; npm run cover">
<ellipse fill="none" stroke="black" cx="1002.1" cy="-378" rx="48.1917" ry="18"/>
<text text-anchor="middle" x="1002.1" y="-374.3" font-family="Times,serif" font-size="14.00">everything</text>
</a>
</g>
</g>
<!-- 31&#45;&gt;28 -->
<g id="edge10" class="edge"><title>31&#45;&gt;28</title>
<path fill="none" stroke="black" d="M1012.5,-360.055C1017.7,-351.592 1024.09,-341.19 1029.83,-331.845"/>
<polygon fill="black" stroke="black" points="1032.83,-333.66 1035.08,-323.307 1026.86,-329.996 1032.83,-333.66"/>
</g>
<!-- 46 -->
<g id="node47" class="node"><title>46</title>
<g id="a_node47"><a xlink:title="typedoc &#45;&#45;out docs/sites/tsdoc/ .">
<ellipse fill="none" stroke="black" cx="967.096" cy="-306" rx="29.4969" ry="18"/>
<text text-anchor="middle" x="967.096" y="-302.3" font-family="Times,serif" font-size="14.00">tsdoc</text>
</a>
</g>
</g>
<!-- 31&#45;&gt;46 -->
<g id="edge9" class="edge"><title>31&#45;&gt;46</title>
<path fill="none" stroke="black" d="M993.623,-360.055C989.479,-351.767 984.405,-341.618 979.808,-332.424"/>
<polygon fill="black" stroke="black" points="982.852,-330.686 975.249,-323.307 976.591,-333.817 982.852,-330.686"/>
</g>
<!-- 32 -->
<g id="node33" class="node"><title>32</title>
<g id="a_node33"><a xlink:title="&lt;build/punchcards&#45;with&#45;source&#45;maps.js exorcist dist/punchcards.js.map &gt; dist/punchcards.js">
<ellipse fill="none" stroke="black" cx="946.096" cy="-18" rx="38.1938" ry="18"/>
<text text-anchor="middle" x="946.096" y="-14.3" font-family="Times,serif" font-size="14.00">exorcist</text>
</a>
</g>
</g>
<!-- 33 -->
<g id="node34" class="node"><title>33</title>
<g id="a_node34"><a xlink:title="jshint test/*.js">
<ellipse fill="none" stroke="black" cx="1151.1" cy="-162" rx="30.5947" ry="18"/>
<text text-anchor="middle" x="1151.1" y="-158.3" font-family="Times,serif" font-size="14.00">jshint</text>
</a>
</g>
</g>
<!-- 34 -->
<g id="node35" class="node"><title>34</title>
<g id="a_node35"><a xlink:title="jslint test/*.js">
<ellipse fill="none" stroke="black" cx="1286.1" cy="-162" rx="28.6953" ry="18"/>
<text text-anchor="middle" x="1286.1" y="-158.3" font-family="Times,serif" font-size="14.00">jslint</text>
</a>
</g>
</g>
<!-- 35 -->
<g id="node36" class="node"><title>35</title>
<g id="a_node36"><a xlink:title="npm run tslint &amp;&amp; npm run jshint &amp;&amp; npm run jslint &amp;&amp; npm run csslint">
<ellipse fill="none" stroke="black" cx="1496.1" cy="-234" rx="27" ry="18"/>
<text text-anchor="middle" x="1496.1" y="-230.3" font-family="Times,serif" font-size="14.00">lint</text>
</a>
</g>
</g>
<!-- 35&#45;&gt;29 -->
<g id="edge14" class="edge"><title>35&#45;&gt;29</title>
<path fill="none" stroke="black" d="M1479.27,-219.854C1454.37,-199.199 1408.75,-156.466 1391.1,-108 1383.84,-88.0852 1385.22,-63.9762 1388.06,-45.8765"/>
<polygon fill="black" stroke="black" points="1391.51,-46.4547 1389.85,-35.9912 1384.62,-45.2079 1391.51,-46.4547"/>
</g>
<!-- 35&#45;&gt;33 -->
<g id="edge12" class="edge"><title>35&#45;&gt;33</title>
<path fill="none" stroke="black" d="M1475.54,-222.119C1470.59,-219.827 1465.24,-217.617 1460.1,-216 1368.93,-187.329 1342.28,-196.249 1248.1,-180 1228.94,-176.695 1207.67,-172.973 1189.94,-169.856"/>
<polygon fill="black" stroke="black" points="1190.41,-166.384 1179.95,-168.098 1189.19,-173.279 1190.41,-166.384"/>
</g>
<!-- 35&#45;&gt;34 -->
<g id="edge13" class="edge"><title>35&#45;&gt;34</title>
<path fill="none" stroke="black" d="M1475,-222.411C1470.16,-220.159 1465,-217.892 1460.1,-216 1413.31,-197.937 1357.6,-181.887 1322.05,-172.305"/>
<polygon fill="black" stroke="black" points="1322.71,-168.857 1312.14,-169.661 1320.9,-175.62 1322.71,-168.857"/>
</g>
<!-- 47 -->
<g id="node48" class="node"><title>47</title>
<g id="a_node48"><a xlink:title="tslint &#45;&#45;config tslint.json ./src/**/*.ts">
<ellipse fill="none" stroke="black" cx="1485.1" cy="-18" rx="28.6953" ry="18"/>
<text text-anchor="middle" x="1485.1" y="-14.3" font-family="Times,serif" font-size="14.00">tslint</text>
</a>
</g>
</g>
<!-- 35&#45;&gt;47 -->
<g id="edge11" class="edge"><title>35&#45;&gt;47</title>
<path fill="none" stroke="black" d="M1495.21,-215.849C1493.31,-178.832 1488.81,-91.1809 1486.5,-46.3863"/>
<polygon fill="black" stroke="black" points="1489.99,-46.0396 1485.98,-36.2325 1483,-46.399 1489.99,-46.0396"/>
</g>
<!-- 36&#45;&gt;32 -->
<g id="edge15" class="edge"><title>36&#45;&gt;32</title>
<path fill="none" stroke="black" d="M1024.58,-74.496C1010.25,-64.3594 990.902,-50.6814 975.005,-39.4412"/>
<polygon fill="black" stroke="black" points="976.768,-36.401 966.582,-33.4855 972.727,-42.1166 976.768,-36.401"/>
</g>
<!-- 48 -->
<g id="node49" class="node"><title>48</title>
<g id="a_node49"><a xlink:title="uglifycss dist/punchcards.css &gt; dist/punchcards.min.css">
<ellipse fill="none" stroke="black" cx="1045.1" cy="-18" rx="42.4939" ry="18"/>
<text text-anchor="middle" x="1045.1" y="-14.3" font-family="Times,serif" font-size="14.00">uglifycss</text>
</a>
</g>
</g>
<!-- 36&#45;&gt;48 -->
<g id="edge17" class="edge"><title>36&#45;&gt;48</title>
<path fill="none" stroke="black" d="M1045.1,-71.6966C1045.1,-63.9827 1045.1,-54.7125 1045.1,-46.1124"/>
<polygon fill="black" stroke="black" points="1048.6,-46.1043 1045.1,-36.1043 1041.6,-46.1044 1048.6,-46.1043"/>
</g>
<!-- 49 -->
<g id="node50" class="node"><title>49</title>
<g id="a_node50"><a xlink:title="uglifyjs dist/punchcards.js &#45;&#45;output dist/punchcards.min.js &#45;&#45;source&#45;map dist/punchcards.min.js.map &#45;&#45;screw&#45;ie8 &#45;&#45;in&#45;source&#45;map dist/punchcards.js.map &#45;&#45;source&#45;map&#45;url punchcards.min.js.map">
<ellipse fill="none" stroke="black" cx="1143.1" cy="-18" rx="37.8943" ry="18"/>
<text text-anchor="middle" x="1143.1" y="-14.3" font-family="Times,serif" font-size="14.00">uglifyjs</text>
</a>
</g>
</g>
<!-- 36&#45;&gt;49 -->
<g id="edge16" class="edge"><title>36&#45;&gt;49</title>
<path fill="none" stroke="black" d="M1065.4,-74.496C1079.59,-64.3594 1098.74,-50.6814 1114.48,-39.4412"/>
<polygon fill="black" stroke="black" points="1116.71,-42.146 1122.82,-33.4855 1112.64,-36.4498 1116.71,-42.146"/>
</g>
<!-- 38&#45;&gt;30 -->
<g id="edge20" class="edge"><title>38&#45;&gt;30</title>
<path fill="none" stroke="black" d="M1045.1,-215.697C1045.1,-207.983 1045.1,-198.712 1045.1,-190.112"/>
<polygon fill="black" stroke="black" points="1048.6,-190.104 1045.1,-180.104 1041.6,-190.104 1048.6,-190.104"/>
</g>
<!-- 38&#45;&gt;33 -->
<g id="edge19" class="edge"><title>38&#45;&gt;33</title>
<path fill="none" stroke="black" d="M1067.06,-218.496C1083.17,-207.856 1105.19,-193.315 1122.65,-181.786"/>
<polygon fill="black" stroke="black" points="1124.89,-184.5 1131.31,-176.069 1121.03,-178.659 1124.89,-184.5"/>
</g>
<!-- 38&#45;&gt;34 -->
<g id="edge18" class="edge"><title>38&#45;&gt;34</title>
<path fill="none" stroke="black" d="M1076.85,-222.145C1083.2,-220.048 1089.85,-217.911 1096.1,-216 1149.38,-199.7 1211.68,-182.71 1250.01,-172.492"/>
<polygon fill="black" stroke="black" points="1251.4,-175.746 1260.16,-169.796 1249.6,-168.981 1251.4,-175.746"/>
</g>
<!-- 39&#45;&gt;29 -->
<g id="edge22" class="edge"><title>39&#45;&gt;29</title>
<path fill="none" stroke="black" d="M1424.62,-72.411C1419.83,-64.0421 1413.93,-53.7098 1408.59,-44.3698"/>
<polygon fill="black" stroke="black" points="1411.51,-42.4159 1403.51,-35.4699 1405.43,-45.8889 1411.51,-42.4159"/>
</g>
<!-- 39&#45;&gt;47 -->
<g id="edge21" class="edge"><title>39&#45;&gt;47</title>
<path fill="none" stroke="black" d="M1445.92,-72.7646C1452.39,-63.8931 1460.52,-52.738 1467.69,-42.8916"/>
<polygon fill="black" stroke="black" points="1470.62,-44.8092 1473.68,-34.6658 1464.96,-40.6872 1470.62,-44.8092"/>
</g>
<!-- 40 -->
<g id="node41" class="node"><title>40</title>
<g id="a_node41"><a xlink:title="npm run clean&#45;tsdoc &amp;&amp; mkdirp docs/sites/tsdoc">
<ellipse fill="none" stroke="black" cx="926.096" cy="-90" rx="40.0939" ry="18"/>
<text text-anchor="middle" x="926.096" y="-86.3" font-family="Times,serif" font-size="14.00">pretsdoc</text>
</a>
</g>
</g>
<!-- 40&#45;&gt;27 -->
<g id="edge23" class="edge"><title>40&#45;&gt;27</title>
<path fill="none" stroke="black" d="M899.1,-76.4854C875.349,-65.4748 840.491,-49.3157 813.777,-36.9317"/>
<polygon fill="black" stroke="black" points="815.244,-33.7539 804.699,-32.7234 812.3,-40.1047 815.244,-33.7539"/>
</g>
<!-- 41&#45;&gt;30 -->
<g id="edge25" class="edge"><title>41&#45;&gt;30</title>
<path fill="none" stroke="black" d="M890.382,-289.261C922.165,-263.323 985.502,-211.634 1020.47,-183.093"/>
<polygon fill="black" stroke="black" points="1022.77,-185.735 1028.31,-176.7 1018.35,-180.311 1022.77,-185.735"/>
</g>
<!-- 42 -->
<g id="node43" class="node"><title>42</title>
<g id="a_node43"><a xlink:title="npm run clean &amp; npm run clean&#45;downloaded">
<ellipse fill="none" stroke="black" cx="699.096" cy="-234" rx="30.5947" ry="18"/>
<text text-anchor="middle" x="699.096" y="-230.3" font-family="Times,serif" font-size="14.00">purge</text>
</a>
</g>
</g>
<!-- 41&#45;&gt;42 -->
<g id="edge24" class="edge"><title>41&#45;&gt;42</title>
<path fill="none" stroke="black" d="M839.548,-292.161C809.357,-279.874 763.955,-261.396 733.001,-248.799"/>
<polygon fill="black" stroke="black" points="734.078,-245.458 723.497,-244.931 731.44,-251.942 734.078,-245.458"/>
</g>
<!-- 41&#45;&gt;45 -->
<g id="edge26" class="edge"><title>41&#45;&gt;45</title>
<path fill="none" stroke="black" d="M871.096,-287.697C871.096,-279.983 871.096,-270.712 871.096,-262.112"/>
<polygon fill="black" stroke="black" points="874.596,-262.104 871.096,-252.104 867.596,-262.104 874.596,-262.104"/>
</g>
<!-- 42&#45;&gt;21 -->
<g id="edge27" class="edge"><title>42&#45;&gt;21</title>
<path fill="none" stroke="black" d="M699.096,-215.697C699.096,-207.983 699.096,-198.712 699.096,-190.112"/>
<polygon fill="black" stroke="black" points="702.596,-190.104 699.096,-180.104 695.596,-190.104 702.596,-190.104"/>
</g>
<!-- 42&#45;&gt;25 -->
<g id="edge28" class="edge"><title>42&#45;&gt;25</title>
<path fill="none" stroke="black" d="M677.951,-220.967C660.041,-210.774 633.956,-195.929 612.668,-183.813"/>
<polygon fill="black" stroke="black" points="614.298,-180.714 603.875,-178.81 610.835,-186.798 614.298,-180.714"/>
</g>
<!-- 45&#45;&gt;10 -->
<g id="edge35" class="edge"><title>45&#45;&gt;10</title>
<path fill="none" stroke="black" d="M854.167,-219.834C841.021,-209.608 822.552,-195.243 807.471,-183.514"/>
<polygon fill="black" stroke="black" points="809.539,-180.689 799.497,-177.312 805.242,-186.214 809.539,-180.689"/>
</g>
<!-- 45&#45;&gt;11 -->
<g id="edge36" class="edge"><title>45&#45;&gt;11</title>
<path fill="none" stroke="black" d="M871.096,-215.697C871.096,-207.983 871.096,-198.712 871.096,-190.112"/>
<polygon fill="black" stroke="black" points="874.596,-190.104 871.096,-180.104 867.596,-190.104 874.596,-190.104"/>
</g>
<!-- 46&#45;&gt;40 -->
<g id="edge47" class="edge"><title>46&#45;&gt;40</title>
<path fill="none" stroke="black" d="M963.81,-287.849C956.703,-250.753 939.854,-162.81 931.288,-118.103"/>
<polygon fill="black" stroke="black" points="934.717,-117.395 929.397,-108.232 927.842,-118.712 934.717,-117.395"/>
</g>
</g>
</svg>
